<svg width="24" height="25" viewBox="0 0 24 25" fill="none" xmlns="http://www.w3.org/2000/svg">
<g id="Link">
<path id="Vector" d="M10.0078 2.49219C8.63281 2.49219 7.33594 2.75781 6.11719 3.28906C4.89844 3.80469 3.83594 4.51562 2.92969 5.42188C2.02344 6.32812 1.3125 7.39062 0.796875 8.60938C0.265625 9.82812 0 11.125 0 12.5C0 13.75 0.21875 14.9297 0.65625 16.0391C1.09375 17.1641 1.6875 18.1641 2.4375 19.0391C3.1875 19.9141 4.07812 20.6406 5.10938 21.2188C6.14062 21.7969 7.25 22.1875 8.4375 22.3906V15.3828H5.90625V12.5H8.4375V10.2969C8.4375 9.04688 8.78125 8.08594 9.46875 7.41406C10.1562 6.74219 11.0781 6.40625 12.2344 6.40625C12.7812 6.40625 13.2891 6.4375 13.7578 6.5C14.2266 6.5625 14.4609 6.59375 14.4609 6.59375V9.05469H13.1953C12.5703 9.05469 12.1445 9.21875 11.918 9.54688C11.6914 9.875 11.5781 10.2344 11.5781 10.625V12.5H14.3438L13.8984 15.3828H11.5781V22.3672C12.7656 22.1797 13.875 21.7969 14.9062 21.2188C15.9375 20.6406 16.832 19.9141 17.5898 19.0391C18.3477 18.1641 18.9375 17.1641 19.3594 16.0391C19.7969 14.9297 20.0156 13.75 20.0156 12.5C20.0156 11.125 19.75 9.82812 19.2188 8.60938C18.7031 7.39062 17.9922 6.32812 17.0859 5.42188C16.1797 4.51562 15.1172 3.80469 13.8984 3.28906C12.6797 2.75781 11.3828 2.49219 10.0078 2.49219Z" fill="black"/>
</g>
</svg>
